<svg width="48" height="48" viewBox="0 0 48 48" fill="none" xmlns="http://www.w3.org/2000/svg">
<rect x="0.5" y="0.5" width="47" height="47" rx="23.5" stroke="white"/>
<path d="M24 27C25.66 27 26.99 25.66 26.99 24L27 18C27 16.34 25.66 15 24 15C22.34 15 21 16.34 21 18V24C21 25.66 22.34 27 24 27ZM30.08 24C29.66 24 29.31 24.3 29.25 24.71C28.88 27.32 26.53 29.1 24 29.1C21.47 29.1 19.12 27.33 18.75 24.71C18.69 24.3 18.33 24 17.92 24C17.4 24 17 24.46 17.07 24.97C17.53 27.94 20.03 30.27 23 30.72V33C23 33.55 23.45 34 24 34C24.55 34 25 33.55 25 33V30.72C27.96 30.29 30.47 27.94 30.93 24.97C31 24.46 30.6 24 30.08 24Z" fill="white"/>
</svg>
