<svg width="32" height="32" viewBox="0 0 32 32" fill="none" xmlns="http://www.w3.org/2000/svg">
<path d="M13 0V6H14.3624L16 2.43437L17.6514 6H19V0H17.6651V3.05012L16.7018 0.945107H15.3119L14.3211 3.06444V0H13Z" fill="white"/>
<path d="M13 32V26H14.3624L16 29.5656L17.6514 26H19V32H17.6651V28.9499L16.7018 31.0549H15.3119L14.3211 28.9356V32H13Z" fill="white"/>
<path d="M4.76837e-07 19L6 19L6 17.6376L2.43437 16L6 14.3486L6 13L2.14569e-07 13L2.72918e-07 14.3349L3.05012 14.3349L0.945107 15.2982L0.945107 16.6881L3.06444 17.6789L4.1909e-07 17.6789L4.76837e-07 19Z" fill="white"/>
<path d="M32 19L26 19L26 17.6376L29.5656 16L26 14.3486L26 13L32 13L32 14.3349L28.9499 14.3349L31.0549 15.2982L31.0549 16.6881L28.9356 17.6789L32 17.6789L32 19Z" fill="white"/>
<path d="M2.24063 7.13175L6.8291 11.7202L7.91325 10.6361L6.48962 6.6061L10.5305 8.01878L11.6037 6.94558L7.01527 2.35711L5.95302 3.41936L8.28558 5.75192L5.90922 4.9087L4.80317 6.01475L5.63544 8.42397L3.29193 6.08045L2.24063 7.13175Z" fill="white"/>
<path d="M24.8687 29.7591L20.2803 25.1707L21.3644 24.0865L25.3944 25.5101L23.9817 21.4692L25.0549 20.396L29.6434 24.9845L28.5811 26.0467L26.2486 23.7142L27.0918 26.0905L25.9857 27.1966L23.5765 26.3643L25.92 28.7078L24.8687 29.7591Z" fill="white"/>
<path d="M7.13126 29.7591L11.7197 25.1707L10.6356 24.0865L6.60561 25.5101L8.01829 21.4692L6.94509 20.396L2.35663 24.9845L3.41887 26.0467L5.75143 23.7142L4.90821 26.0905L6.01426 27.1966L8.42348 26.3643L6.07996 28.7078L7.13126 29.7591Z" fill="white"/>
<path d="M29.7594 7.13175L25.1709 11.7202L24.0867 10.6361L25.5104 6.6061L21.4695 8.01878L20.3963 6.94558L24.9847 2.35711L26.047 3.41936L23.7144 5.75192L26.0908 4.9087L27.1968 6.01475L26.3646 8.42397L28.7081 6.08045L29.7594 7.13175Z" fill="white"/>
</svg>
