<svg width="48" height="48" viewBox="0 0 48 48" fill="none" xmlns="http://www.w3.org/2000/svg">
<rect x="0.5" y="0.5" width="47" height="47" rx="23.5" stroke="white"/>
<g clip-path="url(#clip0_261_301)">
<path d="M30.3002 17.71C29.9102 17.32 29.2802 17.32 28.8902 17.71L24.0002 22.59L19.1102 17.7C18.7202 17.31 18.0902 17.31 17.7002 17.7C17.3102 18.09 17.3102 18.72 17.7002 19.11L22.5902 24L17.7002 28.89C17.3102 29.28 17.3102 29.91 17.7002 30.3C18.0902 30.69 18.7202 30.69 19.1102 30.3L24.0002 25.41L28.8902 30.3C29.2802 30.69 29.9102 30.69 30.3002 30.3C30.6902 29.91 30.6902 29.28 30.3002 28.89L25.4102 24L30.3002 19.11C30.6802 18.73 30.6802 18.09 30.3002 17.71Z" fill="white"/>
</g>
<defs>
<clipPath id="clip0_261_301">
<rect width="24" height="24" fill="white" transform="translate(12 12)"/>
</clipPath>
</defs>
</svg>
